<svg xmlns="http://www.w3.org/2000/svg" viewBox="0 0 32 32">
  <rect width="32" height="32" rx="7" fill="#0b0f17" />
  <g fill="none" stroke="#5ed4ff" stroke-width="2.2" stroke-linecap="round" stroke-linejoin="round">
    <path d="M11 16V8.5a1.7 1.7 0 0 1 3.4 0V15" />
    <path d="M14.4 14.5V7a1.7 1.7 0 0 1 3.4 0v7.5" />
    <path d="M17.8 14.5V8a1.7 1.7 0 0 1 3.4 0v8" />
    <path d="M21.2 16v-3a1.7 1.7 0 0 1 3.3 0v6.5a6 6 0 0 1-6 6h-2.2a6 6 0 0 1-4.6-2.2l-3.3-4a1.8 1.8 0 0 1 2.7-2.3l1.7 1.7" />
  </g>
</svg>
